<svg xmlns="http://www.w3.org/2000/svg" viewBox="0 0 480 640"><defs><linearGradient id="g" x1="0" x2="1" y1="0" y2="1"><stop stop-color="#0a0a0a" offset="0"/><stop stop-color="#111111" offset="0.45"/><stop stop-color="#2a1a12" offset="1"/></linearGradient><radialGradient id="glow" cx="50%" cy="30%" r="60%"><stop stop-color="#f5d76e" stop-opacity="0.18" offset="0"/><stop stop-color="#d4af37" stop-opacity="0" offset="1"/></radialGradient></defs><rect width="480" height="640" rx="44" fill="url(#g)"/><rect x="30" y="30" width="420" height="580" rx="36" fill="url(#glow)"/><path d="M120 165H360" stroke="#d4af37" stroke-width="1.5" opacity="0.7"/><path d="M140 190L330 330" stroke="rgba(245,215,110,0.12)" stroke-width="1.5" fill="none"/><circle cx="320" cy="180" r="88" fill="rgba(245,215,110,0.06)"/><path d="M115 520C185 470 295 470 365 520" stroke="#f5d76e" stroke-width="2" fill="none" opacity="0.45"/><rect x="60" y="80" width="360" height="480" rx="30" fill="rgba(255,255,255,0.04)" stroke="rgba(212,175,55,0.25)"/><path d="M92 110L126 78" stroke="#d4af37" stroke-width="1.5" opacity="0.7"/><text x="88" y="145" fill="#d4af37" font-size="13" letter-spacing="6" font-family="Segoe UI, Arial, sans-serif">JAPANESE LEARNING</text><text x="88" y="240" fill="#fff" font-size="56" font-weight="700" font-family="Segoe UI, Arial, sans-serif">会話</text><text x="88" y="300" fill="#f5d76e" font-size="22" font-family="Segoe UI, Arial, sans-serif">Book 2</text><text x="88" y="355" fill="rgba(255,255,255,0.88)" font-size="17" font-family="Segoe UI, Arial, sans-serif">Grammar · Listening · Practice</text><rect x="88" y="395" width="170" height="8" rx="4" fill="#d4af37"/><rect x="88" y="417" width="126" height="6" rx="3" fill="rgba(255,255,255,0.45)"/></svg>