<svg xmlns="http://www.w3.org/2000/svg" viewBox="0 0 480 640"><defs><linearGradient id="g" x1="0" x2="1" y1="0" y2="1"><stop stop-color="#070707" offset="0"/><stop stop-color="#111111" offset="0.45"/><stop stop-color="#221b12" offset="1"/></linearGradient><radialGradient id="glow" cx="50%" cy="30%" r="60%"><stop stop-color="#f5d76e" stop-opacity="0.14" offset="0"/><stop stop-color="#d4af37" stop-opacity="0" offset="1"/></radialGradient></defs><rect width="480" height="640" rx="44" fill="url(#g)"/><rect x="30" y="30" width="420" height="580" rx="36" fill="url(#glow)"/><path d="M150 170C220 115 300 115 370 170" stroke="#d4af37" stroke-width="2" fill="none" opacity="0.8"/><path d="M130 505C200 455 280 455 350 505" stroke="#f5d76e" stroke-width="2" fill="none" opacity="0.42"/><rect x="60" y="80" width="360" height="480" rx="30" fill="rgba(255,255,255,0.04)" stroke="rgba(212,175,55,0.25)"/><circle cx="345" cy="155" r="42" fill="rgba(212,175,55,0.08)"/><path d="M98 120L132 86" stroke="#d4af37" stroke-width="1.5" opacity="0.7"/><text x="88" y="145" fill="#d4af37" font-size="13" letter-spacing="6" font-family="Segoe UI, Arial, sans-serif">JAPANESE LEARNING</text><text x="88" y="240" fill="#fff" font-size="56" font-weight="700" font-family="Segoe UI, Arial, sans-serif">文法</text><text x="88" y="300" fill="#f5d76e" font-size="22" font-family="Segoe UI, Arial, sans-serif">Book 6</text><text x="88" y="355" fill="rgba(255,255,255,0.88)" font-size="17" font-family="Segoe UI, Arial, sans-serif">Structure · Sentences · Fluency</text><rect x="88" y="395" width="170" height="8" rx="4" fill="#d4af37"/><rect x="88" y="417" width="126" height="6" rx="3" fill="rgba(255,255,255,0.45)"/></svg>